<svg width="1200" height="700" viewBox="0 0 1200 700" xmlns="http://www.w3.org/2000/svg" role="img" aria-label="Ignite template preview (silver & black)">
  <defs>
    <linearGradient id="bg" x1="0" y1="0" x2="1" y2="1">
      <stop offset="0%" stop-color="#0b0c0f"/>
      <stop offset="100%" stop-color="#1a1d22"/>
    </linearGradient>
    <linearGradient id="btn" x1="0" y1="0" x2="1" y2="1">
      <stop offset="0%" stop-color="#f0f3f8"/>
      <stop offset="100%" stop-color="#c6ccd6"/>
    </linearGradient>
  </defs>
  <rect width="1200" height="700" fill="url(#bg)"/>
  <rect x="80" y="80" width="1040" height="540" rx="20" fill="#0f1115" stroke="#1b1f27"/>
  <rect x="120" y="140" width="520" height="44" rx="8" fill="#c9cfd8"/>
  <rect x="120" y="200" width="520" height="18" rx="6" fill="#9aa3b2"/>
  <rect x="120" y="226" width="420" height="18" rx="6" fill="#9aa3b2" opacity="0.8"/>
  <rect x="120" y="264" width="200" height="48" rx="12" fill="url(#btn)"/>
  <rect x="332" y="264" width="200" height="48" rx="12" fill="none" stroke="#2a2e38"/>
  <rect x="680" y="140" width="380" height="320" rx="16" fill="#0a0b0d" stroke="#1b1f27"/>
  <circle cx="760" cy="200" r="60" fill="#ffffff" opacity="0.1"/>
  <circle cx="960" cy="360" r="50" fill="#c0c3ca" opacity="0.14"/>
  <rect x="120" y="356" width="300" height="120" rx="14" fill="#0a0b0d" stroke="#1b1f27"/>
  <rect x="440" y="356" width="300" height="120" rx="14" fill="#0a0b0d" stroke="#1b1f27"/>
  <rect x="120" y="496" width="300" height="120" rx="14" fill="#0a0b0d" stroke="#1b1f27"/>
  <rect x="440" y="496" width="300" height="120" rx="14" fill="#0a0b0d" stroke="#1b1f27"/>
</svg>


