<svg width="1200" height="700" viewBox="0 0 1200 700" xmlns="http://www.w3.org/2000/svg" role="img" aria-label="Ignite silver & black landing preview">
  <defs>
    <linearGradient id="bg" x1="0" y1="0" x2="1" y2="1">
      <stop offset="0%" stop-color="#0b0c0f"/>
      <stop offset="100%" stop-color="#2a2d31"/>
    </linearGradient>
    <linearGradient id="panel" x1="0" y1="0" x2="0" y2="1">
      <stop offset="0%" stop-color="rgba(255,255,255,0.06)"/>
      <stop offset="100%" stop-color="rgba(255,255,255,0.02)"/>
    </linearGradient>
    <linearGradient id="btn" x1="0" y1="0" x2="1" y2="1">
      <stop offset="0%" stop-color="#f8f9fb"/>
      <stop offset="100%" stop-color="#c6ccd6"/>
    </linearGradient>
  </defs>
  <rect width="1200" height="700" fill="url(#bg)"/>
  <rect x="80" y="80" width="1040" height="540" rx="20" fill="url(#panel)" stroke="#1b1f27"/>
  <rect x="120" y="140" width="520" height="40" rx="8" fill="#c9cfd8" opacity="0.9"/>
  <rect x="120" y="190" width="520" height="18" rx="6" fill="#9aa3b2" opacity="0.8"/>
  <rect x="120" y="220" width="420" height="18" rx="6" fill="#9aa3b2" opacity="0.7"/>
  <rect x="120" y="260" width="180" height="44" rx="12" fill="url(#btn)"/>
  <rect x="310" y="260" width="180" height="44" rx="12" fill="none" stroke="#2a2e38"/>
  <rect x="680" y="140" width="380" height="320" rx="16" fill="#0a0a0b" stroke="#1b1f27"/>
  <circle cx="760" cy="200" r="60" fill="#ffffff" opacity="0.1"/>
  <circle cx="960" cy="360" r="50" fill="#c0c3ca" opacity="0.12"/>
  <rect x="120" y="340" width="300" height="120" rx="14" fill="#0a0a0b" stroke="#1b1f27"/>
  <rect x="440" y="340" width="300" height="120" rx="14" fill="#0a0a0b" stroke="#1b1f27"/>
  <rect x="120" y="480" width="300" height="120" rx="14" fill="#0a0a0b" stroke="#1b1f27"/>
  <rect x="440" y="480" width="300" height="120" rx="14" fill="#0a0a0b" stroke="#1b1f27"/>
</svg>


