<svg width="1200" height="700" viewBox="0 0 1200 700" xmlns="http://www.w3.org/2000/svg" role="img" aria-label="JEW pink gradient landing preview">
  <defs>
    <linearGradient id="bg" x1="0" y1="0" x2="1" y2="1">
      <stop offset="0%" stop-color="#0a090b"/>
      <stop offset="100%" stop-color="#141017"/>
    </linearGradient>
    <linearGradient id="panel" x1="0" y1="0" x2="0" y2="1">
      <stop offset="0%" stop-color="rgba(255,255,255,0.06)"/>
      <stop offset="100%" stop-color="rgba(255,255,255,0.02)"/>
    </linearGradient>
    <linearGradient id="btn" x1="0" y1="0" x2="1" y2="1">
      <stop offset="0%" stop-color="#ff7ab6"/>
      <stop offset="100%" stop-color="#ff3d81"/>
    </linearGradient>
  </defs>
  <rect width="1200" height="700" fill="url(#bg)"/>
  <rect x="80" y="80" width="1040" height="540" rx="20" fill="url(#panel)" stroke="#1c1720"/>
  <rect x="120" y="140" width="520" height="40" rx="8" fill="#ffd3e6" opacity="0.9"/>
  <rect x="120" y="190" width="520" height="18" rx="6" fill="#ffb3d1" opacity="0.8"/>
  <rect x="120" y="220" width="420" height="18" rx="6" fill="#ff9ec6" opacity="0.7"/>
  <rect x="120" y="260" width="180" height="44" rx="12" fill="url(#btn)"/>
  <rect x="310" y="260" width="180" height="44" rx="12" fill="none" stroke="#2a2130"/>
  <rect x="680" y="140" width="380" height="320" rx="16" fill="#0a090b" stroke="#1c1720"/>
  <circle cx="760" cy="200" r="60" fill="#ff9ec6" opacity="0.14"/>
  <circle cx="960" cy="360" r="50" fill="#ffd3e6" opacity="0.16"/>
  <rect x="120" y="340" width="300" height="120" rx="14" fill="#0a090b" stroke="#1c1720"/>
  <rect x="440" y="340" width="300" height="120" rx="14" fill="#0a090b" stroke="#1c1720"/>
  <rect x="120" y="480" width="300" height="120" rx="14" fill="#0a090b" stroke="#1c1720"/>
  <rect x="440" y="480" width="300" height="120" rx="14" fill="#0a090b" stroke="#1c1720"/>
</svg>


